<svg id="Calque_1" data-name="Calque 1" xmlns="http://www.w3.org/2000/svg" viewBox="0 0 257.41 131.99"><title>LOGO RCG  [Récupéré]</title><path d="M119.41.84c.34,0,.68.08,1,.1A44,44,0,0,1,141.2,6.85,59,59,0,0,1,165,32.11a70.26,70.26,0,0,1,6.12,18.74A82.56,82.56,0,0,1,172.58,67a70.51,70.51,0,0,1-3.38,20.93,73.62,73.62,0,0,1-15,26.49A54.49,54.49,0,0,1,123.85,132a37.8,37.8,0,0,1-11,.57,19.64,19.64,0,0,1-2.38-.31l1.28-.41a62.43,62.43,0,0,0,13-5.3,58.44,58.44,0,0,0,17.83-15.69,71.73,71.73,0,0,0,12.6-25.35A76.18,76.18,0,0,0,157.62,70a90.19,90.19,0,0,0-.23-12.41,66.76,66.76,0,0,0-19.95-42.27A49.47,49.47,0,0,0,112.55,2.13l-2.11-.47a.86.86,0,0,1,0-.16c1.43-.15,2.86-.33,4.29-.45.91-.08,1.81-.09,2.72-.13a.92.92,0,0,0,.27-.08Z" transform="translate(-3.13 -0.79)"/><path d="M164.31.86c.71.06,1.43.13,2.15.18a42.46,42.46,0,0,1,14.09,3.53,56.29,56.29,0,0,1,17.9,12.25A57.1,57.1,0,0,1,210,34.1a82.71,82.71,0,0,1,6.18,21.46,70.29,70.29,0,0,1-5.7,39.67,77.37,77.37,0,0,1-11.35,18.38,53.91,53.91,0,0,1-29.88,18.13,39.84,39.84,0,0,1-8.84,1c-1.88,0-3.76-.09-5.64-.14l-.37,0,0-.14a8,8,0,0,1,1.05-.43A54.71,54.71,0,0,0,175,122.78a58.34,58.34,0,0,0,13.3-14,81.68,81.68,0,0,0,10.36-20.61,69.68,69.68,0,0,0,3.46-18.87,75.58,75.58,0,0,0-3.63-26,72.06,72.06,0,0,0-7.4-16.64A52.78,52.78,0,0,0,165.83,5.15c-2.71-1.11-5.58-1.8-8.38-2.68-.85-.27-1.71-.51-2.57-.84a7.08,7.08,0,0,1,.92-.16l5.71-.53a.58.58,0,0,0,.22-.08Z" transform="translate(-3.13 -0.79)"/><path d="M201.37,132.78c-.78-.06-1.57-.12-2.35-.2l-1.35-.15v-.12c1.4-.43,2.79-.89,4.18-1.31a54,54,0,0,0,18.77-9.82,59.73,59.73,0,0,0,11.95-13.28,80,80,0,0,0,10.67-22.36,69.31,69.31,0,0,0,2.69-16.36,75.71,75.71,0,0,0-3.37-25.29A69.88,69.88,0,0,0,234.67,26,54.11,54.11,0,0,0,206.88,3.75c-2.17-.79-4.46-1.27-6.7-1.89A1.7,1.7,0,0,1,199,1.17c1.69-.12,3.31-.27,4.93-.34a48.19,48.19,0,0,1,21.2,3.81,50.23,50.23,0,0,1,14.51,9.67A64,64,0,0,1,253.52,32.9a67.14,67.14,0,0,1,5.63,17.3,80.42,80.42,0,0,1,1.31,12.19,1.32,1.32,0,0,0,.08.33V68a1.16,1.16,0,0,0-.08.32A73.2,73.2,0,0,1,250,103.58a61.84,61.84,0,0,1-23,22.67,48.76,48.76,0,0,1-21.23,6.35l-2.24.18Z" transform="translate(-3.13 -0.79)"/><path d="M46.09,26.86c-1-.16-2-.4-3-.47a23,23,0,0,0-18.45,6.76,10.63,10.63,0,0,0-3.28,6.19,11.73,11.73,0,0,0,0,2.9,3.56,3.56,0,0,0,3,3.24A4.37,4.37,0,0,1,26.9,47a1.7,1.7,0,0,1,.46,1.78,1.74,1.74,0,0,1-1.58,1,4.8,4.8,0,0,1-3.63-.93,8.6,8.6,0,0,1-3.68-8.62,14.6,14.6,0,0,1,4.36-8.52,26,26,0,0,1,14.34-7.75,32.33,32.33,0,0,1,9.72-.2c.87.1,1.73.24,2.59.36a3.53,3.53,0,0,0,2.36-.54c1.15-.67,2.34-1.29,3.54-1.87a3.56,3.56,0,0,1,1.34-.27,1.21,1.21,0,0,1,1.21.92c.13.46,0,.83-.61,1.16-.79.46-1.6.86-2.41,1.28l-1.08.53,2,1.15a15.37,15.37,0,0,1,6.74,7.6,8.77,8.77,0,0,1-4.36,11.23,16.35,16.35,0,0,1-4.27,1.19.68.68,0,0,0-.15,0l-.43.2a2,2,0,0,0,.24.4,5,5,0,0,1,1.49,3c.09,1.06.08,2.14.07,3.21A15.81,15.81,0,0,1,55,55.18a2,2,0,0,0,.91,2.27,2.16,2.16,0,0,0,2.48-.36c.64-.57,1.2-1.23,1.81-1.83,3-3,5.94-6,9-8.88a37.45,37.45,0,0,1,3.56-2.83,10.79,10.79,0,0,1,6.62-1.81,9.87,9.87,0,0,1,3.41.46,4.49,4.49,0,0,1,2.72,6.21,6.29,6.29,0,0,1-3.52,3.37,3,3,0,0,1-3.15-.61,1.86,1.86,0,0,1-.49-1.08,3.27,3.27,0,0,1,.89-2.78c.23-.24.44-.49.65-.74a1.85,1.85,0,0,0-2.75.18,22.09,22.09,0,0,0-5,6.91,16.66,16.66,0,0,0-1.72,5,8.67,8.67,0,0,0-.07,2,1.86,1.86,0,0,0,1.51,1.69,5.58,5.58,0,0,0,4-.48A19.57,19.57,0,0,0,81,58c3.54-3.51,7-7.06,10.55-10.61a24.91,24.91,0,0,1,5.15-4.06,11.71,11.71,0,0,1,8.45-1.08,6,6,0,0,1,2.9,1.21c.53-.93,1-1.81,1.52-2.67a20.91,20.91,0,0,1,1.29-1.93,1.47,1.47,0,0,1,2.52-.1c.89,1,1.71,2,2.51,3.05A1.91,1.91,0,0,1,116,44q-1.29,2.57-2.57,5.14c-1.4,2.82-2.77,5.66-4.18,8.47-.66,1.33-1.38,2.62-2.08,3.93-.06.13-.11.27-.18.44a2.77,2.77,0,0,0,1.68-.57,40.6,40.6,0,0,0,3.11-2.74,10.84,10.84,0,0,0,1.6-2.53,7.63,7.63,0,0,1,1.82-2.39,2.48,2.48,0,0,1,3.86.5,10.64,10.64,0,0,1,2,5,36.4,36.4,0,0,1,.31,9c-.93,8-4.24,14.62-10.71,19.57a46.54,46.54,0,0,1-13.11,6.82,137.32,137.32,0,0,1-15,4c-4,.9-8.07,1.67-12.09,2.59a41.4,41.4,0,0,0-12.26,4.77,18.52,18.52,0,0,0-5.49,4.86c-.29.39-.61.77-1,1.24l-1.41-2.73a46.25,46.25,0,0,0-18-19.11,32,32,0,0,0-11.33-4c-1.07-.17-2.17-.16-3.26-.24a2.35,2.35,0,0,1-.81-.17,17,17,0,0,1,1.52-.81A53.58,53.58,0,0,1,37.18,81c2.27-.07,4.55-.24,6.82-.21,3.24.05,6.47.19,9.7.39,6.68.41,13.27,1.58,19.89,2.44,2.63.35,5.25.83,7.88,1.19A62.28,62.28,0,0,0,92,85.24c2.57-.09,5.16-.06,7.71-.34,5-.55,9.76-2,13.75-5.28a17.19,17.19,0,0,0,5.44-8.57,27.72,27.72,0,0,0,.86-11.31,8.27,8.27,0,0,0-1.53-3.93q-.34.45-.69.87a28.23,28.23,0,0,1-9.64,7.76A9.29,9.29,0,0,0,104,68c-1,1.76-2,3.55-3.09,5.3a29.19,29.19,0,0,1-6.14,7.33A10.93,10.93,0,0,1,88,83.31a8,8,0,0,0-1.49.34,1.34,1.34,0,0,1-.47.11A34.37,34.37,0,0,1,81.86,83a4.52,4.52,0,0,1-3.42-3.62A5.3,5.3,0,0,1,79.64,75a7.5,7.5,0,0,1,2.93-2.3l11.22-5c.62-.27,1.23-.53,1.31-1.32,0-.1,0-.2,0-.41-.52.14-1,.23-1.49.4a9.57,9.57,0,0,1-5.39.53,14.67,14.67,0,0,1-3-1.11,2.31,2.31,0,0,1-1.11-2.24c0-1.28,0-2.57,0-3.91a4.37,4.37,0,0,0-1.85,1,27,27,0,0,1-10.33,6.25,9.69,9.69,0,0,1-6.61-.07,6.07,6.07,0,0,1-3.32-3,16.16,16.16,0,0,1-1-2.52,2,2,0,0,1,0-1.17,3,3,0,0,0-.09-1.87c-.44.41-.89.78-1.27,1.19a28.76,28.76,0,0,1-10,7.25,7,7,0,0,1-4.36.45,3.8,3.8,0,0,1-3.07-3.81A18.7,18.7,0,0,1,43,58.1c.64-2.3,1.39-4.57,2.06-6.87.22-.76.37-1.54.53-2.31a2,2,0,0,0-1-2.32c-.13-.08-.26-.14-.39-.23a1.48,1.48,0,0,1,.13-2.66,10.37,10.37,0,0,1,2-.59c1-.25,2-.47,3-.71a6.78,6.78,0,0,0,5.16-7.66,7.55,7.55,0,0,0-3.17-5.48c-.46-.33-.9-.68-1.42-1.07-.82,1.11-1.68,2.17-2.42,3.31a57.11,57.11,0,0,0-5.31,10.71c-1.29,3.28-2.45,6.62-3.79,9.88a26.86,26.86,0,0,1-12.52,14,18.7,18.7,0,0,1-9.91,2.43,15.55,15.55,0,0,1-9.5-3.48A8.83,8.83,0,0,1,3.88,54.66a7.39,7.39,0,0,1,7.27-4.31,4.69,4.69,0,0,1,3.59,2.21,3,3,0,0,1-.8,4.06,15.92,15.92,0,0,1-2.13,1.44A3.88,3.88,0,0,0,10,61.93a1.67,1.67,0,0,0,1.26,1.4,7.12,7.12,0,0,0,5.9-.27,18.2,18.2,0,0,0,5.33-4.51,72.2,72.2,0,0,0,7.39-10.7c2.18-3.68,4.29-7.39,6.82-10.85a46.38,46.38,0,0,1,8.38-8.93,11.16,11.16,0,0,0,1-1.05ZM96.43,59.38A3.52,3.52,0,0,0,99,58.27a26.85,26.85,0,0,0,6.14-10.06,1.1,1.1,0,0,0-.6-1.52,1.63,1.63,0,0,0-1.69,0A11.41,11.41,0,0,0,99,50.32a39.49,39.49,0,0,0-4.12,6.86c-.62,1.34-.1,2.14,1.38,2.2h.15m-3.68,12.1-.1-.1c-.74.29-1.51.56-2.23.89A9.24,9.24,0,0,0,85.3,77.5a3,3,0,0,0-.2,1.88,1.17,1.17,0,0,0,1.58.91,3.78,3.78,0,0,0,1.48-.92,27,27,0,0,0,4.59-7.89" transform="translate(-3.13 -0.79)"/></svg>